<svg width="29" height="28" viewBox="0 0 29 28" fill="none" xmlns="http://www.w3.org/2000/svg">
<path d="M27.1875 28C23.9116 28 20.6558 27.2287 17.4201 25.6861C14.1845 24.1435 11.2778 22.1278 8.7 19.6389C6.12222 17.15 4.02778 14.337 2.41667 11.2C0.805556 8.06296 0 4.91296 0 1.75C0 1.46481 0.0134261 1.16667 0.0402779 0.855555C0.0671298 0.544444 0.107407 0.259259 0.161111 0H8.7L10.3111 7.35L5.59861 11.9389C7.10231 14.35 8.78727 16.45 10.6535 18.2389C12.5197 20.0278 14.6343 21.5444 16.9972 22.7889L21.7097 18.0833L29 19.6389V27.8833C28.7315 27.9093 28.4361 27.9352 28.1139 27.9611C27.7917 27.987 27.4829 28 27.1875 28V28ZM4.39028 9.8L7.65278 6.61111L6.72639 2.33333H2.41667C2.41667 3.34444 2.57778 4.45278 2.9 5.65833C3.22222 6.86389 3.71898 8.24444 4.39028 9.8ZM19.2528 23.9167C20.3537 24.4093 21.5486 24.8111 22.8375 25.1222C24.1264 25.4333 25.375 25.6148 26.5833 25.6667V21.5056L22.4347 20.6889L19.2528 23.9167Z" fill="#E10707"/>
</svg>
