<svg width="22" height="18" viewBox="0 0 22 18" fill="none" xmlns="http://www.w3.org/2000/svg">
<path d="M16.5 0.5C14.55 0.5 12.45 0.9 11 2C9.55 0.9 7.45 0.5 5.5 0.5C4.05 0.5 2.51 0.72 1.22 1.29C0.49 1.62 0 2.33 0 3.14V14.42C0 15.72 1.22 16.68 2.48 16.36C3.46 16.11 4.5 16 5.5 16C7.06 16 8.72 16.26 10.06 16.92C10.66 17.22 11.34 17.22 11.93 16.92C13.27 16.25 14.93 16 16.49 16C17.49 16 18.53 16.11 19.51 16.36C20.77 16.69 21.99 15.73 21.99 14.42V3.14C21.99 2.33 21.5 1.62 20.77 1.29C19.49 0.72 17.95 0.5 16.5 0.5ZM20 13.23C20 13.86 19.42 14.32 18.8 14.21C18.05 14.07 17.27 14.01 16.5 14.01C14.8 14.01 12.35 14.66 11 15.51V4C12.35 3.15 14.8 2.5 16.5 2.5C17.42 2.5 18.33 2.59 19.2 2.78C19.66 2.88 20 3.29 20 3.76V13.23Z" fill="url(#paint0_linear_308_6)"/>
<path d="M12.98 7.0101C12.66 7.0101 12.37 6.8101 12.27 6.4901C12.14 6.1001 12.36 5.6701 12.75 5.5501C14.29 5.0501 16.28 4.8901 18.11 5.1001C18.52 5.1501 18.82 5.5201 18.77 5.9301C18.72 6.3401 18.35 6.6401 17.94 6.5901C16.32 6.4001 14.55 6.5501 13.21 6.9801C13.13 6.9901 13.05 7.0101 12.98 7.0101Z" fill="url(#paint1_linear_308_6)"/>
<path d="M12.98 9.67001C12.66 9.67001 12.37 9.47001 12.27 9.15001C12.14 8.76001 12.36 8.33001 12.75 8.21001C14.28 7.71001 16.28 7.55001 18.11 7.76001C18.52 7.81001 18.82 8.18001 18.77 8.59001C18.72 9.00001 18.35 9.30001 17.94 9.25001C16.32 9.06001 14.55 9.21001 13.21 9.64001C13.13 9.66001 13.05 9.67001 12.98 9.67001Z" fill="url(#paint2_linear_308_6)"/>
<path d="M12.98 12.3299C12.66 12.3299 12.37 12.1299 12.27 11.8099C12.14 11.4199 12.36 10.9899 12.75 10.8699C14.28 10.3699 16.28 10.2099 18.11 10.4199C18.52 10.4699 18.82 10.8399 18.77 11.2499C18.72 11.6599 18.35 11.9499 17.94 11.9099C16.32 11.7199 14.55 11.8699 13.21 12.2999C13.13 12.3199 13.05 12.3299 12.98 12.3299Z" fill="url(#paint3_linear_308_6)"/>
<defs>
<linearGradient id="paint0_linear_308_6" x1="10.995" y1="0.5" x2="10.995" y2="17.145" gradientUnits="userSpaceOnUse">
<stop stop-color="#F85E42"/>
<stop offset="1" stop-color="#E10707"/>
</linearGradient>
<linearGradient id="paint1_linear_308_6" x1="15.504" y1="5.01001" x2="15.504" y2="7.0101" gradientUnits="userSpaceOnUse">
<stop stop-color="#F85E42"/>
<stop offset="1" stop-color="#E10707"/>
</linearGradient>
<linearGradient id="paint2_linear_308_6" x1="15.504" y1="7.66992" x2="15.504" y2="9.67001" gradientUnits="userSpaceOnUse">
<stop stop-color="#F85E42"/>
<stop offset="1" stop-color="#E10707"/>
</linearGradient>
<linearGradient id="paint3_linear_308_6" x1="15.504" y1="10.3298" x2="15.504" y2="12.3299" gradientUnits="userSpaceOnUse">
<stop stop-color="#F85E42"/>
<stop offset="1" stop-color="#E10707"/>
</linearGradient>
</defs>
</svg>
