<svg width="37" height="37" viewBox="0 0 37 37" fill="none" xmlns="http://www.w3.org/2000/svg">
<rect width="37" height="37" fill="#0A66C2"/>
<path d="M7.7923 5.04553C8.70873 5.04553 9.42628 5.33444 9.94765 5.90955C10.469 6.48467 10.7485 7.21029 10.7861 8.07969C10.7861 8.93833 10.4932 9.6626 9.90331 10.2512C9.31341 10.8384 8.50717 11.1327 7.48727 11.1327H7.45099C6.45528 11.1327 5.66651 10.8384 5.0793 10.2512C4.49881 9.6626 4.20453 8.93833 4.20453 8.07969C4.20453 7.19685 4.52434 6.47123 5.16933 5.90015C5.81432 5.3304 6.69044 5.04553 7.7923 5.04553ZM4.59018 13.5433H10.8829V31.2215H4.59018V13.5433ZM33.6363 21.0857V31.2215H27.345V21.767C27.345 20.5643 27.0977 19.6009 26.6059 18.8672C26.1168 18.1402 25.2985 17.7761 24.1429 17.7761C23.2627 17.7761 22.5559 17.9991 22.0292 18.4479C21.5011 18.8941 21.1181 19.3872 20.887 19.9287C20.8117 20.1249 20.7647 20.3413 20.7392 20.5818C20.715 20.8183 20.7042 21.0749 20.7042 21.345V31.2228H14.3739C14.4008 28.2317 14.4156 25.4878 14.4156 22.9992V19.8562V17.0007C14.4156 16.1313 14.4062 15.3896 14.3914 14.7742C14.3833 14.1641 14.3739 13.7516 14.3739 13.5433H20.7042V16.0467L20.6693 16.1192H20.7042V16.0467C20.9004 15.739 21.1517 15.4178 21.4581 15.0805C21.7685 14.7446 22.1394 14.4302 22.5908 14.1399C23.0383 13.8524 23.5772 13.6159 24.2087 13.4237C24.8443 13.2343 25.5672 13.1402 26.3909 13.1402C27.4149 13.1402 28.3716 13.2961 29.2638 13.6092C30.1534 13.9222 30.918 14.4127 31.5683 15.0819C32.2147 15.747 32.7213 16.5748 33.0894 17.5638C33.4563 18.5501 33.6363 19.7245 33.6363 21.0857Z" fill="white"/>
</svg>
